<svg width="18" height="18" fill="none" xmlns="http://www.w3.org/2000/svg"><path d="M7.882 1.778a1.192 1.192 0 012.236 0l1.32 3.31c.174.438.568.737 1.02.775l3.426.286c1.074.09 1.509 1.487.691 2.218l-2.61 2.333a1.296 1.296 0 00-.39 1.252l.798 3.488c.25 1.093-.89 1.957-1.809 1.37l-2.933-1.868a1.168 1.168 0 00-1.262 0L5.436 16.81c-.919.585-2.058-.278-1.809-1.37l.798-3.489a1.296 1.296 0 00-.39-1.252l-2.61-2.333c-.818-.73-.383-2.128.69-2.218l3.426-.286a1.216 1.216 0 001.021-.774l1.32-3.311z" stroke="#90969E"/></svg>