<svg width="17" height="22" fill="none" xmlns="http://www.w3.org/2000/svg"><path d="M1.924 6.22l4.14-4.265-.718-.696-4.14 4.265.718.697zM3 21.5h11v-1H3v1zm4.14-20H14v-1H7.14v1zM15.5 3v16h1V3h-1zM.5 7.266V19h1V7.266h-1zM3 20.5A1.5 1.5 0 011.5 19h-1A2.5 2.5 0 003 21.5v-1zM1.206 5.524A2.5 2.5 0 00.5 7.266h1c0-.39.152-.765.424-1.045l-.718-.697zm4.858-3.569A1.5 1.5 0 017.14 1.5v-1a2.5 2.5 0 00-1.794.759l.718.696zM14 21.5a2.5 2.5 0 002.5-2.5h-1a1.5 1.5 0 01-1.5 1.5v1zm0-20A1.5 1.5 0 0115.5 3h1A2.5 2.5 0 0014 .5v1z" fill="#B0B3C6"/><path d="M7.562 1.952v3.715a2 2 0 01-2 2H1.937" stroke="#B0B3C6" stroke-linecap="round" stroke-linejoin="round"/></svg>