<svg width="21" height="26" fill="none" xmlns="http://www.w3.org/2000/svg"><path d="M15.476 18.385h-.5.5zm0-15.385h-.5.5zM1.92 6.053l3.96-4.095-.72-.695-3.957 4.095.72.695zM3 20.885h10.476v-1H3v1zM6.958 1.5h6.518v-1H6.958v1zM14.976 3v15.385h1V3h-1zM.5 7.095v11.29h1V7.095h-1zM3 19.885a1.5 1.5 0 01-1.5-1.5h-1a2.5 2.5 0 002.5 2.5v-1zM1.202 5.358A2.5 2.5 0 00.5 7.095h1a1.5 1.5 0 01.421-1.042l-.719-.695zm4.677-3.4A1.5 1.5 0 016.958 1.5v-1a2.5 2.5 0 00-1.798.763l.719.695zm7.597 18.927a2.5 2.5 0 002.5-2.5h-1a1.5 1.5 0 01-1.5 1.5v1zm0-19.385a1.5 1.5 0 011.5 1.5h1a2.5 2.5 0 00-2.5-2.5v1z" fill="#B0B3C6"/><path d="M15.476 5.115a.5.5 0 000 1v-1zm-9.452 15.27a.5.5 0 00-1 0h1zM20 23h-.5.5zM7.524 25.5H18v-1H7.524v1zm7.952-19.385H18v-1h-2.524v1zm4.024 1.5V23h1V7.615h-1zM5.024 20.385V23h1v-2.615h-1zm2.5 4.115a1.5 1.5 0 01-1.5-1.5h-1a2.5 2.5 0 002.5 2.5v-1zM18 25.5a2.5 2.5 0 002.5-2.5h-1a1.5 1.5 0 01-1.5 1.5v1zm0-19.385a1.5 1.5 0 011.5 1.5h1a2.5 2.5 0 00-2.5-2.5v1z" fill="#B0B3C6"/><path d="M7.333 1.923v3.539a2 2 0 01-2 2H1.904" stroke="#B0B3C6" stroke-linecap="round" stroke-linejoin="round"/></svg>