<svg width="15" height="18" fill="none" xmlns="http://www.w3.org/2000/svg"><path d="M1.288 4.232l-.356-.35.356.35zm9.558 8.691h.5-.5zm0-10.923h-.5.5zM1.644 4.584l2.893-2.935-.712-.702L.932 3.88l.712.703zM2 14.424h7.846v-1H2v1zM4.893 1.5h4.953v-1H4.893v1zm5.453.5v10.923h1V2h-1zM.5 4.935v7.988h1V4.935h-1zM2 13.423a.5.5 0 01-.5-.5h-1a1.5 1.5 0 001.5 1.5v-1zM.932 3.881A1.5 1.5 0 00.5 4.935h1a.5.5 0 01.144-.351L.932 3.88zM4.537 1.65a.5.5 0 01.356-.149v-1a1.5 1.5 0 00-1.068.447l.712.702zm5.31 12.774a1.5 1.5 0 001.5-1.5h-1a.5.5 0 01-.5.5v1zm0-12.923a.5.5 0 01.5.5h1a1.5 1.5 0 00-1.5-1.5v1z" fill="#90969E"/><path d="M10.846 3.577a.5.5 0 100 1v-1zM4.577 13.923a.5.5 0 10-1 0h1zM13.923 16h.5-.5zm0-10.923h-.5.5zM5.077 17.5h7.846v-1H5.077v1zm5.77-12.923h2.076v-1h-2.077v1zm2.576.5V16h1V5.077h-1zm-9.846 8.846V16h1v-2.077h-1zm1.5 2.577a.5.5 0 01-.5-.5h-1a1.5 1.5 0 001.5 1.5v-1zm7.846 1a1.5 1.5 0 001.5-1.5h-1a.5.5 0 01-.5.5v1zm0-12.923a.5.5 0 01.5.5h1a1.5 1.5 0 00-1.5-1.5v1z" fill="#90969E"/><path d="M5.308 1.615v2.693a1 1 0 01-1 1H1.615" stroke="#90969E" stroke-linecap="round" stroke-linejoin="round"/></svg>