<svg width="165" height="30" fill="none" xmlns="http://www.w3.org/2000/svg"><path fill-rule="evenodd" clip-rule="evenodd" d="M28.885 29.01c.39.34.834.305 1.426.303h4.71V.093h-6.14l.004 28.917z" fill="url(#paint0_linear)"/><path fill-rule="evenodd" clip-rule="evenodd" d="M20.526 8.658l5.07 4.054 9.432-9.37V.094h-6.147l-8.355 8.564z" fill="url(#paint1_linear)"/><path fill-rule="evenodd" clip-rule="evenodd" d="M20.526 8.658L0 29.332h9.868l9.061-9.497 9.956 9.175-.002-8.906-5.353-5.368 2.065-2.024-5.07-4.054z" fill="url(#paint2_radial)"/><path d="M54.69.001v11.896h-2.346V2.252h-4.195v9.645h-2.342V0h8.882zm4.55 9.657h5.009v2.239h-7.354V0h7.268v2.251H59.24v2.53h4.498v2.206H59.24v2.67zM70.326.001a3.948 3.948 0 012.89 1.155 3.834 3.834 0 011.18 2.846 3.821 3.821 0 01-1.169 2.834 3.949 3.949 0 01-2.888 1.157h-2.087v3.904h-2.36V0h4.434zm0 5.793a1.634 1.634 0 001.24-.52 1.791 1.791 0 00.495-1.281 1.79 1.79 0 00-.495-1.291 1.649 1.649 0 00-1.24-.51H68.24v3.611l2.087-.009zm12.771-.061a2.944 2.944 0 011.564 2.734 3.199 3.199 0 01-1.072 2.47 3.776 3.776 0 01-2.63.966h-5.043V0h4.687a3.703 3.703 0 012.573.942 3.095 3.095 0 011.041 2.4 2.895 2.895 0 01-1.12 2.39zm-2.494-3.532h-2.345v2.615h2.345a1.215 1.215 0 00.911-.374 1.282 1.282 0 00.365-.932 1.296 1.296 0 00-.359-.936 1.215 1.215 0 00-.917-.373zm.355 7.52a1.315 1.315 0 00.984-.397 1.384 1.384 0 00.392-1.012 1.363 1.363 0 00-.842-1.322 1.328 1.328 0 00-.534-.096h-2.7v2.828h2.7zm12.88 2.176l-.711-2.127H88.37l-.714 2.127h-2.53L89.296 0H92.2l4.177 11.887-2.54.009zm-4.712-4.329h3.26l-1.629-4.86-1.63 4.86zM106.055.002v11.895h-2.342V7.772h-1.343l-2.734 4.125h-2.63l2.907-4.38a3.833 3.833 0 01-1.853-1.392 3.646 3.646 0 01-.714-2.175A3.793 3.793 0 0198.5 1.165a3.82 3.82 0 012.801-1.163h4.754zm-4.754 5.716h2.412V2.201h-2.412a1.499 1.499 0 00-1.136.51c-.316.334-.488.78-.477 1.24-.01.462.162.91.477 1.248a1.476 1.476 0 001.136.52z" fill="#fff"/><path d="M53.328 29.524l-.686-2.057h-4.557l-.686 2.057h-2.43l4-11.43h2.792l4.015 11.43h-2.448zm-4.523-4.165h3.135l-1.567-4.669-1.568 4.67zm14.988-1.761a2.822 2.822 0 011.518 2.612 3.074 3.074 0 01-1.03 2.384 3.64 3.64 0 01-2.53.93h-4.86v-11.43h4.505a3.575 3.575 0 012.476.91 2.98 2.98 0 011.002 2.312 2.785 2.785 0 01-1.081 2.282zm-2.4-3.396h-2.254v2.515h2.254a1.173 1.173 0 00.875-.362 1.337 1.337 0 000-1.795 1.158 1.158 0 00-.875-.358zm.343 7.217a1.264 1.264 0 00.948-.383 1.332 1.332 0 00.377-.972 1.315 1.315 0 00-.81-1.244 1.272 1.272 0 00-.515-.092H59.14v2.694l2.597-.003zM74 18.093v2.157h-3.087v9.274h-2.254V20.25h-3.071v-2.157h8.411zm10.22 9.937a5.932 5.932 0 01-10.127-4.22 5.935 5.935 0 1111.871 0 5.723 5.723 0 01-1.744 4.22zm-6.84-1.52a3.815 3.815 0 005.258 0 3.621 3.621 0 001.06-2.685 3.646 3.646 0 00-1.06-2.694 3.781 3.781 0 00-5.258 0 3.948 3.948 0 000 5.38zm19.088 3.014h-2.597l-4.082-5.355v5.355h-2.254v-11.43h2.254v5.045l3.918-5.046h2.597l-4.228 5.553 4.392 5.878z" fill="#C74B4E"/><path d="M106.216 28.03a5.935 5.935 0 01-9.153-.907 5.932 5.932 0 01-.987-3.313 5.935 5.935 0 1111.871 0 5.721 5.721 0 01-1.731 4.22zm-6.844-1.52a3.695 3.695 0 006.312-2.7 3.63 3.63 0 00-1.063-2.694 3.781 3.781 0 00-5.258 0 3.644 3.644 0 00-1.06 2.694 3.62 3.62 0 001.07 2.686v.015zm8.624 3.014v-2.09c.674.097 1.182-.036 1.519-.407.337-.37.504-1.097.504-2.172v-6.762h7.773v11.43h-2.235V20.25h-3.299v4.538a7.518 7.518 0 01-.362 2.5 3.164 3.164 0 01-.987 1.5 3.39 3.39 0 01-1.34.654 4.91 4.91 0 01-1.573.082zm21.536-1.494a5.927 5.927 0 01-6.486 1.294 5.93 5.93 0 01-3.653-5.514 5.935 5.935 0 1111.871 0 5.72 5.72 0 01-1.732 4.22zm-6.84-1.52a3.808 3.808 0 005.255 0 3.949 3.949 0 000-5.379 3.78 3.78 0 00-5.255 0 3.948 3.948 0 000 5.38zm16.652-8.417h2.239v11.43h-2.239v-4.735h-4.253v4.736h-2.254v-11.43h2.254v4.538h4.253v-4.539zm10.859 0h2.236v11.43h-2.236v-4.735h-4.252v4.736H143.7v-11.43h2.251v4.538h4.252v-4.539zm11.707 11.431l-.686-2.057h-4.557l-.686 2.057h-2.43l4-11.43h2.792l4.019 11.43h-2.452zm-4.523-4.165h3.135l-1.567-4.669-1.568 4.67z" fill="#C74B4E"/><defs><linearGradient id="paint0_linear" x1="28.881" y1="14.704" x2="35.02" y2="14.704" gradientUnits="userSpaceOnUse"><stop stop-color="#C2C7D9"/><stop offset="1" stop-color="#fff"/></linearGradient><linearGradient id="paint1_linear" x1="20.526" y1="6.403" x2="35.028" y2="6.403" gradientUnits="userSpaceOnUse"><stop stop-color="#C2C7D9"/><stop offset="1" stop-color="#fff"/></linearGradient><radialGradient id="paint2_radial" cx="0" cy="0" r="1" gradientUnits="userSpaceOnUse" gradientTransform="translate(14.443 18.995) scale(12.5585)"><stop stop-color="#FF5F62"/><stop offset="1" stop-color="#852C2F"/></radialGradient></defs></svg>