<svg width="18" height="18" fill="none" xmlns="http://www.w3.org/2000/svg"><path d="M17 5.462h-.5.5zM3 17v-.5.5zm12 0v-.5.5zM.5 5.462V15h1V5.462h-1zM15 16.5H3v1h12v-1zm1.5-11.038V15h1V5.462h-1zm-1.5-2.5H3v1h12v-1zm2.5 2.5a2.5 2.5 0 00-2.5-2.5v1a1.5 1.5 0 011.5 1.5h1zm-16 0a1.5 1.5 0 011.5-1.5v-1a2.5 2.5 0 00-2.5 2.5h1zM.5 15A2.5 2.5 0 003 17.5v-1A1.5 1.5 0 011.5 15h-1zM15 17.5a2.5 2.5 0 002.5-2.5h-1a1.5 1.5 0 01-1.5 1.5v1z" fill="#90969E"/><path d="M1 9.615h6.154m3.692 0H17" stroke="#90969E"/><path d="M12.192 3.462a.5.5 0 101 0h-1zm-7.384 0a.5.5 0 001 0h-1zm0-.462v.462h1V3h-1zm7.384 0v.462h1V3h-1zm-1.5-2.5H7.308v1h3.384v-1zm2.5 2.5a2.5 2.5 0 00-2.5-2.5v1a1.5 1.5 0 011.5 1.5h1zM5.808 3a1.5 1.5 0 011.5-1.5v-1a2.5 2.5 0 00-2.5 2.5h1z" fill="#90969E"/><circle cx="9" cy="10.231" r="1.846" stroke="#90969E"/></svg>