<svg width="18" height="18" viewBox="0 0 18 18" fill="none" xmlns="http://www.w3.org/2000/svg">
<path d="M7.88233 1.77791C8.29583 0.740694 9.70418 0.740696 10.1177 1.77792L11.4376 5.08879C11.6119 5.52605 12.0061 5.82482 12.4585 5.86266L15.8845 6.14922C16.9578 6.23899 17.393 7.63641 16.5753 8.36722L13.965 10.7C13.6203 11.0081 13.4697 11.4915 13.5751 11.9522L14.3725 15.4401C14.6224 16.5328 13.483 17.3965 12.5641 16.8109L9.63097 14.9418C9.2436 14.6949 8.7564 14.6949 8.36903 14.9418L5.43589 16.8109C4.517 17.3965 3.37763 16.5328 3.62746 15.4401L4.42493 11.9522C4.53025 11.4915 4.3797 11.0081 4.03497 10.7L1.42471 8.36722C0.606979 7.63641 1.04218 6.23899 2.11547 6.14922L5.54148 5.86266C5.99395 5.82482 6.3881 5.52605 6.56242 5.08879L7.88233 1.77791Z" stroke="#90969E"/>
</svg>
