<svg width="21" height="26" viewBox="0 0 21 26" fill="none" xmlns="http://www.w3.org/2000/svg">
<path d="M15.4756 18.3846H14.9756H15.4756ZM15.4756 3L14.9756 3L15.4756 3ZM1.92137 6.05281L5.87894 1.95762L5.15985 1.2627L1.20228 5.35789L1.92137 6.05281ZM3 20.8846H13.4756V19.8846H3V20.8846ZM6.95757 1.5H13.4756V0.5H6.95757V1.5ZM14.9756 3L14.9756 18.3846H15.9756L15.9756 3L14.9756 3ZM0.5 7.09519V18.3846H1.5V7.09519H0.5ZM3 19.8846C2.17157 19.8846 1.5 19.213 1.5 18.3846H0.5C0.5 19.7653 1.61929 20.8846 3 20.8846V19.8846ZM1.20228 5.35789C0.751802 5.82403 0.5 6.44694 0.5 7.09519H1.5C1.5 6.70624 1.65108 6.3325 1.92137 6.05281L1.20228 5.35789ZM5.87894 1.95762C6.16157 1.66516 6.55085 1.5 6.95757 1.5V0.5C6.27971 0.5 5.63091 0.775259 5.15985 1.2627L5.87894 1.95762ZM13.4756 20.8846C14.8563 20.8846 15.9756 19.7653 15.9756 18.3846H14.9756C14.9756 19.213 14.3041 19.8846 13.4756 19.8846V20.8846ZM13.4756 1.5C14.3041 1.5 14.9756 2.17157 14.9756 3L15.9756 3C15.9756 1.61929 14.8563 0.5 13.4756 0.5V1.5Z" fill="#B0B3C6"/>
<path d="M15.4759 5.11539C15.1998 5.11539 14.9759 5.33924 14.9759 5.61539C14.9759 5.89153 15.1998 6.11539 15.4759 6.11539V5.11539ZM6.02393 20.3846C6.02393 20.1085 5.80007 19.8846 5.52393 19.8846C5.24778 19.8846 5.02393 20.1085 5.02393 20.3846H6.02393ZM19.9996 23H19.4996H19.9996ZM7.52393 25.5H17.9996V24.5H7.52393V25.5ZM15.4759 6.11539H17.9996V5.11539H15.4759V6.11539ZM19.4996 7.61539L19.4996 23H20.4996L20.4996 7.61539L19.4996 7.61539ZM5.02393 20.3846V23H6.02393V20.3846H5.02393ZM7.52393 24.5C6.6955 24.5 6.02393 23.8284 6.02393 23H5.02393C5.02393 24.3807 6.14321 25.5 7.52393 25.5V24.5ZM17.9996 25.5C19.3803 25.5 20.4996 24.3807 20.4996 23H19.4996C19.4996 23.8284 18.828 24.5 17.9996 24.5V25.5ZM17.9996 6.11539C18.828 6.11539 19.4996 6.78696 19.4996 7.61539L20.4996 7.61539C20.4996 6.23468 19.3803 5.11539 17.9996 5.11539V6.11539Z" fill="#B0B3C6"/>
<path d="M7.33266 1.92307V5.46153C7.33266 6.5661 6.43723 7.46153 5.33266 7.46153H1.9043" stroke="#B0B3C6" stroke-linecap="round" stroke-linejoin="round"/>
</svg>
