<svg width="17" height="22" viewBox="0 0 17 22" fill="none" xmlns="http://www.w3.org/2000/svg">
<path d="M1.92363 6.22083L6.06371 1.95529L5.34613 1.25881L1.20605 5.52435L1.92363 6.22083ZM3 21.5H14V20.5H3V21.5ZM7.14008 1.5H14V0.5H7.14008V1.5ZM15.5 3L15.5 19H16.5L16.5 3L15.5 3ZM0.5 7.26554V19H1.5V7.26554H0.5ZM3 20.5C2.17157 20.5 1.5 19.8284 1.5 19H0.5C0.5 20.3807 1.61929 21.5 3 21.5V20.5ZM1.20605 5.52435C0.753254 5.99087 0.5 6.61542 0.5 7.26554H1.5C1.5 6.87547 1.65195 6.50074 1.92363 6.22083L1.20605 5.52435ZM6.06371 1.95529C6.3462 1.66424 6.7345 1.5 7.14008 1.5V0.5C6.4641 0.5 5.81694 0.773741 5.34613 1.25881L6.06371 1.95529ZM14 21.5C15.3807 21.5 16.5 20.3807 16.5 19H15.5C15.5 19.8284 14.8284 20.5 14 20.5V21.5ZM14 1.5C14.8284 1.5 15.5 2.17157 15.5 3L16.5 3C16.5 1.61929 15.3807 0.5 14 0.5V1.5Z" fill="#B0B3C6"/>
<path d="M7.56201 1.95237V5.66665C7.56201 6.77122 6.66658 7.66666 5.56201 7.66666H1.93701" stroke="#B0B3C6" stroke-linecap="round" stroke-linejoin="round"/>
</svg>
