<svg width="15" height="18" viewBox="0 0 15 18" fill="none" xmlns="http://www.w3.org/2000/svg">
<path d="M1.28792 4.23246L0.931886 3.88141L1.28792 4.23246ZM10.8462 12.9231H11.3462H10.8462ZM10.8462 2H10.3462H10.8462ZM1.64396 4.58351L4.53743 1.64895L3.82535 0.946846L0.931886 3.88141L1.64396 4.58351ZM2 14.4231H9.84616V13.4231H2V14.4231ZM4.89346 1.5H9.84615V0.5H4.89346V1.5ZM10.3462 2L10.3462 12.9231H11.3462L11.3462 2L10.3462 2ZM0.5 4.93456V12.9231H1.5V4.93456H0.5ZM2 13.4231C1.72386 13.4231 1.5 13.1992 1.5 12.9231H0.5C0.5 13.7515 1.17157 14.4231 2 14.4231V13.4231ZM0.931886 3.88141C0.655145 4.16208 0.5 4.5404 0.5 4.93456H1.5C1.5 4.80318 1.55172 4.67707 1.64396 4.58351L0.931886 3.88141ZM4.53743 1.64895C4.63139 1.55365 4.75963 1.5 4.89346 1.5V0.5C4.49197 0.5 4.10724 0.660953 3.82535 0.946846L4.53743 1.64895ZM9.84616 14.4231C10.6746 14.4231 11.3462 13.7515 11.3462 12.9231H10.3462C10.3462 13.1992 10.1223 13.4231 9.84616 13.4231V14.4231ZM9.84615 1.5C10.1223 1.5 10.3462 1.72386 10.3462 2L11.3462 2C11.3462 1.17157 10.6746 0.5 9.84615 0.5V1.5Z" fill="#90969E"/>
<path d="M10.8464 3.57692C10.5702 3.57692 10.3464 3.80078 10.3464 4.07692C10.3464 4.35306 10.5702 4.57692 10.8464 4.57692V3.57692ZM4.57715 13.9231C4.57715 13.6469 4.35329 13.4231 4.07715 13.4231C3.80101 13.4231 3.57715 13.6469 3.57715 13.9231H4.57715ZM13.9233 16H14.4233H13.9233ZM13.9233 5.07692L13.4233 5.07692L13.9233 5.07692ZM5.07715 17.5H12.9233V16.5H5.07715V17.5ZM10.8464 4.57692H12.9233V3.57692H10.8464V4.57692ZM13.4233 5.07692L13.4233 16H14.4233L14.4233 5.07692L13.4233 5.07692ZM3.57715 13.9231V16H4.57715V13.9231H3.57715ZM5.07715 16.5C4.80101 16.5 4.57715 16.2761 4.57715 16H3.57715C3.57715 16.8284 4.24872 17.5 5.07715 17.5V16.5ZM12.9233 17.5C13.7517 17.5 14.4233 16.8284 14.4233 16H13.4233C13.4233 16.2761 13.1994 16.5 12.9233 16.5V17.5ZM12.9233 4.57692C13.1994 4.57692 13.4233 4.80078 13.4233 5.07692L14.4233 5.07692C14.4233 4.24849 13.7517 3.57692 12.9233 3.57692V4.57692Z" fill="#90969E"/>
<path d="M5.30754 1.61539V4.30769C5.30754 4.85998 4.85983 5.30769 4.30754 5.30769H1.61523" stroke="#90969E" stroke-linecap="round" stroke-linejoin="round"/>
</svg>
