<svg width="165" height="30" viewBox="0 0 165 30" fill="none" xmlns="http://www.w3.org/2000/svg">
<path fill-rule="evenodd" clip-rule="evenodd" d="M28.8851 29.0104C29.2753 29.3502 29.7197 29.3147 30.3116 29.3129H35.0206V0.093689H28.8813L28.8851 29.0104Z" fill="url(#paint0_linear)"/>
<path fill-rule="evenodd" clip-rule="evenodd" d="M20.5259 8.65835L25.5952 12.7119L35.0281 3.34255V0.093689H28.8814L20.5259 8.65835Z" fill="url(#paint1_linear)"/>
<path fill-rule="evenodd" clip-rule="evenodd" d="M20.5257 8.65842L0 29.3316H9.86793L18.9293 19.8352L28.8849 29.0105L28.8831 20.1041L23.5299 14.736L25.595 12.712L20.5257 8.65842Z" fill="url(#paint2_radial)"/>
<path d="M54.6891 0.00146484V11.8967H52.344V2.25233H48.1491V11.8967H45.8071V0.00146484H54.6891Z" fill="#47404C"/>
<path d="M59.2396 9.658H64.2486V11.8967H56.8945V0.00146484H64.1635V2.25233H59.2396V4.78265H63.7382V6.98795H59.2396V9.658Z" fill="#47404C"/>
<path d="M70.3265 0.00145016C70.8611 -0.0117643 71.3928 0.0837324 71.8893 0.28215C72.3859 0.480567 72.837 0.77777 73.2153 1.15574C73.5984 1.52258 73.9013 1.96496 74.1047 2.45489C74.3081 2.94481 74.4076 3.47161 74.3969 4.00197C74.4082 4.52951 74.3101 5.05367 74.1088 5.54144C73.9076 6.0292 73.6074 6.47 73.2274 6.83605C72.8494 7.21457 72.3984 7.51233 71.9018 7.71128C71.4053 7.91022 70.8734 8.0062 70.3387 7.99338H68.2518V11.8967H65.8916V0.00145016H70.3265ZM70.3265 5.79415C70.5581 5.80037 70.7884 5.75727 71.002 5.66772C71.2157 5.57817 71.4079 5.44421 71.5658 5.27472C71.7286 5.10414 71.8562 4.9031 71.9411 4.68313C72.0261 4.46316 72.0668 4.22859 72.061 3.99286C72.0682 3.75559 72.0282 3.51924 71.9432 3.2976C71.8581 3.07596 71.7299 2.87346 71.5658 2.70188C71.4065 2.53481 71.2138 2.40307 71.0003 2.31516C70.7868 2.22725 70.5573 2.18515 70.3265 2.19156H68.2397V5.80327L70.3265 5.79415Z" fill="#47404C"/>
<path d="M83.0967 5.73342C83.5896 5.99412 83.9983 6.38948 84.2753 6.87348C84.5522 7.35747 84.686 7.91018 84.661 8.46726C84.6725 8.93209 84.5826 9.39384 84.3974 9.82035C84.2122 10.2469 83.9362 10.6279 83.5888 10.9368C82.8683 11.5843 81.9265 11.9302 80.9582 11.9028H75.9158V0.00146373H80.6028C81.5493 -0.0251431 82.47 0.311831 83.1756 0.94312C83.514 1.24279 83.7826 1.61291 83.9626 2.02749C84.1426 2.44206 84.2296 2.89102 84.2175 3.34282C84.2336 3.80163 84.1404 4.25769 83.9455 4.67335C83.7506 5.08902 83.4597 5.45237 83.0967 5.73342ZM80.6028 2.20069H78.2578V4.81606H80.6028C80.7723 4.82084 80.941 4.79007 81.098 4.72572C81.2549 4.66137 81.3967 4.56487 81.5141 4.44244C81.6343 4.3194 81.7285 4.17344 81.7911 4.01323C81.8538 3.85301 81.8835 3.68184 81.8786 3.50989C81.884 3.33795 81.8551 3.16665 81.7936 3.006C81.732 2.84536 81.6391 2.6986 81.5201 2.57431C81.4021 2.4511 81.2593 2.35415 81.1013 2.28977C80.9432 2.2254 80.7734 2.19504 80.6028 2.20069ZM80.9582 9.72178C81.1409 9.72748 81.3228 9.69504 81.4922 9.62652C81.6617 9.55801 81.815 9.45493 81.9424 9.32386C82.0725 9.1904 82.1743 9.03198 82.2417 8.85815C82.309 8.68431 82.3405 8.49865 82.3342 8.31234C82.3428 8.12439 82.3125 7.93669 82.245 7.76104C82.1776 7.58539 82.0746 7.4256 81.9424 7.2917C81.8145 7.16123 81.6611 7.05854 81.4918 6.99007C81.3224 6.9216 81.1408 6.88882 80.9582 6.89378H78.2578V9.72178H80.9582Z" fill="#47404C"/>
<path d="M93.8376 11.8967L93.1268 9.77039H88.3699L87.656 11.8967H85.1257L89.2964 0.00146484H92.2003L96.377 11.8876L93.8376 11.8967ZM89.1262 7.56813H92.3856L90.7574 2.70797L89.1262 7.56813Z" fill="#47404C"/>
<path d="M106.055 0.00150982V11.8968H103.713V7.77169H102.37L99.6363 11.8968H97.0057L99.9127 7.51653C99.1664 7.25503 98.5191 6.76908 98.0598 6.12531C97.5945 5.4958 97.3442 4.73321 97.3459 3.95039C97.3376 3.43183 97.4357 2.91707 97.6342 2.43795C97.8328 1.95884 98.1275 1.52555 98.5002 1.16491C98.8629 0.789982 99.2984 0.493322 99.7801 0.293229C100.262 0.0931368 100.779 -0.00614439 101.301 0.00150982H106.055ZM101.301 5.71827H103.713V2.20073H101.301C101.086 2.1993 100.873 2.24414 100.677 2.33219C100.481 2.42024 100.306 2.54946 100.165 2.71105C99.8486 3.04509 99.6772 3.49054 99.6879 3.95039C99.6784 4.41274 99.8495 4.8606 100.165 5.19884C100.305 5.36273 100.479 5.49409 100.676 5.58379C100.872 5.67349 101.085 5.71938 101.301 5.71827Z" fill="#47404C"/>
<path d="M53.3282 29.5239L52.6417 27.4674H48.0853L47.3988 29.5239H44.9688L48.9693 18.0934H51.7608L55.7765 29.5239H53.3282ZM48.8052 25.3593H51.94L50.3726 20.6905L48.8052 25.3593Z" fill="#C74B4E"/>
<path d="M63.7927 23.5976C64.2674 23.8443 64.6623 24.2208 64.9312 24.6834C65.2001 25.1459 65.332 25.6753 65.3115 26.2099C65.3243 26.6585 65.2387 27.1044 65.0608 27.5163C64.8829 27.9282 64.617 28.2962 64.2817 28.5945C63.588 29.2162 62.6826 29.5488 61.7514 29.524H56.8912V18.0935H61.396C62.3072 18.0706 63.1928 18.3965 63.8716 19.0048C64.1974 19.2935 64.456 19.65 64.6292 20.0494C64.8024 20.4488 64.8859 20.8812 64.8741 21.3164C64.8862 21.7549 64.7946 22.1901 64.6066 22.5865C64.4187 22.983 64.1398 23.3294 63.7927 23.5976ZM61.393 20.2016H59.1391V22.7167H61.393C61.5559 22.7206 61.7178 22.6904 61.8685 22.6282C62.0191 22.5659 62.1551 22.473 62.2678 22.3552C62.4906 22.1094 62.6141 21.7894 62.6141 21.4576C62.6141 21.1258 62.4906 20.8059 62.2678 20.56C62.1554 20.4421 62.0194 20.3492 61.8686 20.2874C61.7179 20.2256 61.5558 20.1964 61.393 20.2016ZM61.7362 27.4189C61.9121 27.4246 62.0873 27.3935 62.2505 27.3276C62.4137 27.2617 62.5613 27.1625 62.6839 27.0362C62.8088 26.9078 62.9065 26.7555 62.9712 26.5885C63.0359 26.4215 63.0663 26.2432 63.0606 26.0641C63.0649 25.888 63.0338 25.7129 62.9691 25.549C62.9044 25.3852 62.8074 25.236 62.6839 25.1103C62.561 24.9845 62.4133 24.8855 62.2502 24.8197C62.0871 24.7538 61.9121 24.7224 61.7362 24.7276H59.1391V27.4219L61.7362 27.4189Z" fill="#C74B4E"/>
<path d="M73.9991 18.0934V20.2501H70.9129V29.5239H68.659V20.2501H65.588V18.0934H73.9991Z" fill="#C74B4E"/>
<path d="M84.2204 28.0295C83.3893 28.8606 82.33 29.4262 81.1769 29.6543C80.0239 29.8825 78.829 29.7629 77.744 29.3109C76.659 28.8589 75.7327 28.0947 75.0827 27.1153C74.4327 26.136 74.0882 24.9856 74.0931 23.8102C74.0931 23.0308 74.2466 22.2589 74.5449 21.5388C74.8432 20.8187 75.2804 20.1644 75.8315 19.6132C76.3827 19.0621 77.037 18.6249 77.7571 18.3266C78.4773 18.0283 79.2491 17.8748 80.0285 17.8748C80.808 17.8748 81.5798 18.0283 82.2999 18.3266C83.0201 18.6249 83.6744 19.0621 84.2256 19.6132C84.7767 20.1644 85.2139 20.8187 85.5122 21.5388C85.8105 22.2589 85.964 23.0308 85.964 23.8102C85.9785 24.5955 85.8311 25.3754 85.5312 26.1012C85.2312 26.8271 84.785 27.4835 84.2204 28.0295ZM77.3798 26.5107C78.0889 27.185 79.0302 27.5611 80.0088 27.5611C80.9874 27.5611 81.9286 27.185 82.6378 26.5107C82.9893 26.1597 83.2647 25.7402 83.4471 25.2783C83.6295 24.8163 83.7149 24.3218 83.698 23.8254C83.7147 23.3277 83.6292 22.8319 83.4469 22.3685C83.2646 21.9051 82.9892 21.4839 82.6378 21.1311C81.9326 20.449 80.9899 20.0677 80.0088 20.0677C79.0277 20.0677 78.085 20.449 77.3798 21.1311C76.6999 21.8618 76.322 22.8228 76.322 23.8209C76.322 24.8189 76.6999 25.7799 77.3798 26.5107Z" fill="#C74B4E"/>
<path d="M96.4683 29.5239H93.8711L89.7886 24.1686V29.5239H87.5347V18.0934H89.7886V23.1388L93.7071 18.0934H96.3042L92.0759 23.6461L96.4683 29.5239Z" fill="#C74B4E"/>
<path d="M106.216 28.0295C105.385 28.8648 104.325 29.4341 103.17 29.6646C102.015 29.8952 100.817 29.7767 99.7295 29.3241C98.6419 28.8716 97.7137 28.1055 97.0631 27.1235C96.4125 26.1416 96.069 24.9881 96.0763 23.8102C96.0763 23.0308 96.2298 22.2589 96.5281 21.5388C96.8264 20.8187 97.2636 20.1644 97.8147 19.6132C98.3659 19.0621 99.0202 18.6249 99.7404 18.3266C100.46 18.0283 101.232 17.8748 102.012 17.8748C102.791 17.8748 103.563 18.0283 104.283 18.3266C105.003 18.6249 105.658 19.0621 106.209 19.6132C106.76 20.1644 107.197 20.8187 107.495 21.5388C107.794 22.2589 107.947 23.0308 107.947 23.8102C107.963 24.5946 107.818 25.3739 107.52 26.0998C107.222 26.8256 106.778 27.4824 106.216 28.0295ZM99.3721 26.5107C99.8936 27.0353 100.561 27.3912 101.287 27.5324C102.013 27.6736 102.765 27.5936 103.445 27.3026C104.125 27.0117 104.702 26.5232 105.101 25.9006C105.5 25.2779 105.704 24.5497 105.684 23.8102C105.701 23.3123 105.615 22.8163 105.432 22.3529C105.249 21.8895 104.973 21.4685 104.621 21.1159C103.916 20.4338 102.973 20.0526 101.992 20.0526C101.011 20.0526 100.068 20.4338 99.363 21.1159C99.0116 21.4687 98.7362 21.8899 98.5539 22.3533C98.3716 22.8167 98.2861 23.3125 98.3029 23.8102C98.2871 24.3072 98.374 24.8022 98.5579 25.2642C98.7419 25.7261 99.019 26.1453 99.3721 26.4955V26.5107Z" fill="#C74B4E"/>
<path d="M107.996 29.5239V27.434C108.67 27.5312 109.178 27.3976 109.515 27.027C109.852 26.6564 110.019 25.9304 110.019 24.8551V18.0934H117.792V29.5239H115.557V20.2501H112.258V24.7883C112.279 25.636 112.157 26.4812 111.896 27.2882C111.719 27.8732 111.376 28.3943 110.909 28.7888C110.516 29.103 110.059 29.326 109.569 29.4419C109.053 29.5537 108.521 29.5814 107.996 29.5239Z" fill="#C74B4E"/>
<path d="M129.532 28.0295C128.702 28.8648 127.642 29.4341 126.486 29.6646C125.331 29.8952 124.134 29.7767 123.046 29.3241C121.959 28.8716 121.03 28.1055 120.38 27.1235C119.729 26.1416 119.386 24.9881 119.393 23.8102C119.393 22.236 120.018 20.7263 121.131 19.6132C122.244 18.5001 123.754 17.8748 125.328 17.8748C126.903 17.8748 128.412 18.5001 129.525 19.6132C130.639 20.7263 131.264 22.236 131.264 23.8102C131.28 24.5946 131.134 25.3739 130.837 26.0998C130.539 26.8256 130.095 27.4824 129.532 28.0295ZM122.692 26.5107C123.4 27.1855 124.341 27.562 125.319 27.562C126.298 27.562 127.238 27.1855 127.947 26.5107C128.627 25.7799 129.005 24.8189 129.005 23.8209C129.005 22.8228 128.627 21.8618 127.947 21.1311C127.242 20.4492 126.3 20.068 125.319 20.068C124.339 20.068 123.396 20.4492 122.692 21.1311C122.012 21.8618 121.634 22.8228 121.634 23.8209C121.634 24.8189 122.012 25.7799 122.692 26.5107Z" fill="#C74B4E"/>
<path d="M139.344 18.0934H141.583V29.5239H139.344V24.7883H135.091V29.5239H132.837V18.0934H135.091V22.6316H139.344V18.0934Z" fill="#C74B4E"/>
<path d="M150.203 18.0934H152.439V29.5239H150.203V24.7883H145.951V29.5239H143.7V18.0934H145.951V22.6316H150.203V18.0934Z" fill="#C74B4E"/>
<path d="M161.91 29.5239L161.224 27.4674H156.667L155.981 29.5239H153.551L157.551 18.0934H160.343L164.362 29.5239H161.91ZM157.387 25.3593H160.522L158.955 20.6905L157.387 25.3593Z" fill="#C74B4E"/>
<defs>
<linearGradient id="paint0_linear" x1="28.8813" y1="14.7042" x2="35.0206" y2="14.7042" gradientUnits="userSpaceOnUse">
<stop stop-color="#C2C7D9"/>
<stop offset="1" stop-color="white"/>
</linearGradient>
<linearGradient id="paint1_linear" x1="20.5259" y1="6.40281" x2="35.0281" y2="6.40281" gradientUnits="userSpaceOnUse">
<stop stop-color="#C2C7D9"/>
<stop offset="1" stop-color="white"/>
</linearGradient>
<radialGradient id="paint2_radial" cx="0" cy="0" r="1" gradientUnits="userSpaceOnUse" gradientTransform="translate(14.4425 18.995) scale(12.5585)">
<stop stop-color="#FF5F62"/>
<stop offset="1" stop-color="#852C2F"/>
</radialGradient>
</defs>
</svg>
