<svg width="18" height="18" viewBox="0 0 18 18" fill="none" xmlns="http://www.w3.org/2000/svg">
<path d="M17 5.46157L16.5 5.46157L17 5.46157ZM3 17L3 16.5L3 17ZM15 17L15 16.5L15 17ZM0.500002 5.46155L0.500001 15L1.5 15L1.5 5.46155L0.500002 5.46155ZM15 16.5L3 16.5L3 17.5L15 17.5L15 16.5ZM16.5 5.46157L16.5 15L17.5 15L17.5 5.46157L16.5 5.46157ZM15 2.96157L3.00001 2.96155L3 3.96155L15 3.96157L15 2.96157ZM17.5 5.46157C17.5 4.08086 16.3807 2.96158 15 2.96157L15 3.96157C15.8284 3.96157 16.5 4.63315 16.5 5.46157L17.5 5.46157ZM1.5 5.46155C1.5 4.63312 2.17158 3.96155 3 3.96155L3.00001 2.96155C1.61929 2.96155 0.500002 4.08084 0.500002 5.46155L1.5 5.46155ZM0.500001 15C0.500001 16.3807 1.61929 17.5 3 17.5L3 16.5C2.17157 16.5 1.5 15.8284 1.5 15L0.500001 15ZM15 17.5C16.3807 17.5 17.5 16.3807 17.5 15L16.5 15C16.5 15.8284 15.8284 16.5 15 16.5L15 17.5Z" fill="#90969E"/>
<path d="M1.00045 9.61539L7.1543 9.6154" stroke="#90969E"/>
<path d="M10.8462 9.61539L17 9.6154" stroke="#90969E"/>
<path d="M12.1924 3.46153C12.1924 3.73767 12.4162 3.96153 12.6924 3.96153C12.9685 3.96153 13.1924 3.73767 13.1924 3.46153L12.1924 3.46153ZM4.80777 3.46154C4.80777 3.73768 5.03163 3.96154 5.30777 3.96154C5.58391 3.96154 5.80777 3.73768 5.80777 3.46154L4.80777 3.46154ZM4.80777 3L4.80777 3.46154L5.80777 3.46154L5.80777 3L4.80777 3ZM12.1924 3L12.1924 3.46153L13.1924 3.46153L13.1924 3L12.1924 3ZM10.6924 0.500001L7.30777 0.500002L7.30777 1.5L10.6924 1.5L10.6924 0.500001ZM13.1924 3C13.1924 1.61929 12.0731 0.5 10.6924 0.500001L10.6924 1.5C11.5208 1.5 12.1924 2.17157 12.1924 3L13.1924 3ZM5.80777 3C5.80777 2.17157 6.47934 1.5 7.30777 1.5L7.30777 0.500002C5.92706 0.500002 4.80777 1.61929 4.80777 3L5.80777 3Z" fill="#90969E"/>
<circle cx="9.00045" cy="10.2308" r="1.84615" stroke="#90969E"/>
</svg>
